<svg width="136" height="60" viewBox="0 0 136 60" fill="none" xmlns="http://www.w3.org/2000/svg">
<path d="M28.0328 0.119141H36.4891V16.6009C36.4891 16.6009 38.1799 15.1827 44.0447 15.1827C49.9095 15.1827 53.0394 17.8964 54.0024 19.031C54.9655 20.1656 56.5345 22.7567 56.5345 25.9178C56.5345 29.0788 56.5345 46.4116 56.5345 46.4116H48.0997V27.2542C48.0997 27.2542 47.9212 23.6486 42.5758 23.6486C37.5171 23.6486 36.4891 26.2014 36.4891 28.0642C36.4891 29.9271 36.4891 46.3788 36.4891 46.3788H27.9922L28.0328 0.119141Z" fill="white"/>
<path d="M55.8828 14.834H65.1962L73.041 31.6005L79.8533 14.8531H89.4078L71.3392 59.0164H61.5435L70.0358 38.6491H66.4725L55.8828 14.834Z" fill="white"/>
<path d="M96.6598 46.4538L96.6247 22.4973H88.7773L91.5564 15.2866H96.741V9.36089C96.741 9.36089 96.6625 5.45681 99.8312 2.67948C102.64 0.215899 105.019 0.164062 107.673 0.164062C110.328 0.164062 112.536 0.731532 112.536 0.731532V7.94767C112.536 7.94767 111.329 7.37748 109.521 7.37748C107.714 7.37748 106.607 8.04589 106.125 8.69521C105.644 9.34452 105.381 10.7004 105.381 11.347C105.381 11.9936 105.36 15.2975 105.36 15.2975H112.471L112.457 22.5464H105.143L105.178 46.4565H96.6598V46.4538Z" fill="white"/>
<path d="M121.258 7.2832H129.011V15.0994H135.349L135.314 22.3124H128.894L128.929 36.4314C128.929 36.4314 129.051 37.6926 129.897 38.3039C130.745 38.9153 131.917 39.0359 132.926 39.0359C133.935 39.0359 135.39 38.6823 135.39 38.6823V45.7555C135.39 45.7555 133.734 46.4463 130.585 46.4463C127.436 46.4463 124.807 45.8158 123.031 44.0256C121.255 42.2353 120.573 40.5849 120.573 38.2217C120.573 35.8585 120.538 22.3919 120.538 22.3919H114.602L114.634 15.1103H117.824C117.824 15.1103 119.512 15.1323 120.535 13.5367C121.381 12.218 121.255 10.8253 121.255 10.8253V7.2832H121.258Z" fill="white"/>
<path d="M26.1053 14.8711L23.2906 22.1069C23.2906 22.1069 11.7491 22.176 11.2827 22.176C9.70795 22.176 8.73404 23.335 8.73404 24.6488C8.73404 26.7316 10.3773 27.1492 11.7079 27.3843C14.4211 27.8684 19.2989 27.8435 22.399 29.9263C25.499 32.009 26.1876 34.3629 26.1876 37.1012C26.1876 39.8395 24.2453 42.5667 22.5608 43.9497C20.9587 45.2635 17.6666 46.6355 14.6159 46.5138C12.2456 46.4197 0.890625 46.5138 0.890625 46.5138V39.6542H12.2813V41.9471L19.79 37.0016L12.2429 32.2275V34.3767C12.2429 34.3767 8.35819 34.1803 5.41177 32.4433C2.4626 30.709 0.890625 28.3386 0.890625 25.1826C0.890625 21.5924 2.56959 18.6245 5.40079 16.8488C8.232 15.073 10.6105 14.8711 12.3307 14.8711C14.0508 14.8711 26.1053 14.8711 26.1053 14.8711Z" fill="white"/>
</svg>
